# xmcd CD database file
#
# Track frame offsets:
#	150
#	21699
#	52067
#	76561
#	98060
#	133616
#	166955
#	205693
#	221671
#	245038
#	280016
#
# Disc length: 3977 seconds
#
# Revision: 0
# Processed by: cddbd v1.5.2PL0 Copyright (c) Steve Scherf et al.
# Submitted via: CDex 1.51
#
DISCID=990f870b
DTITLE=Ulf Wakenius, Ray Brown Trio - Summertime
DYEAR=1998
DGENRE=Jazz
TTITLE0=Ulf Wakenius, Ray Brown Trio - West Coast Blues
TTITLE1=Ulf Wakenius, Ray Brown Trio - Summertime
TTITLE2=Ulf Wakenius, Ray Brown Trio - Topsy
TTITLE3=Ulf Wakenius, Ray Brown Trio - Yours Is My Heart Alone
TTITLE4=Ulf Wakenius, Ray Brown Trio - It's Only a Paper Moon
TTITLE5=Ulf Wakenius, Ray Brown Trio - My One and Only
TTITLE6=Ulf Wakenius, Ray Brown Trio - Reunion Blues
TTITLE7=Ulf Wakenius, Ray Brown Trio - Watch What Happens
TTITLE8=Ulf Wakenius, Ray Brown Trio - The More I See You
TTITLE9=Ulf Wakenius, Ray Brown Trio - Honeysuckle Rose
TTITLE10=Ulf Wakenius, Ray Brown Trio - Cakes' Blues
EXTD=YEAR: 1998
EXTT0=
EXTT1=
EXTT2=
EXTT3=
EXTT4=
EXTT5=
EXTT6=
EXTT7=
EXTT8=
EXTT9=
EXTT10=
PLAYORDER=
